<?xml version="1.0" encoding="UTF-8"?>
<!DOCTYPE svg PUBLIC "-//W3C//DTD SVG 1.1//EN" "http://www.w3.org/Graphics/SVG/1.1/DTD/svg11.dtd">
<svg xmlns="http://www.w3.org/2000/svg" version="1.1" width="512px" height="512px" style="shape-rendering:geometricPrecision; text-rendering:geometricPrecision; image-rendering:optimizeQuality; fill-rule:evenodd; clip-rule:evenodd" xmlns:xlink="http://www.w3.org/1999/xlink">
<g><path style="opacity:0.021" fill="#43443f" d="M -0.5,-0.5 C 0.166667,-0.5 0.833333,-0.5 1.5,-0.5C 1.16667,0.5 0.5,1.16667 -0.5,1.5C -0.5,0.833333 -0.5,0.166667 -0.5,-0.5 Z"/></g>
<g><path style="opacity:0.022" fill="#43443f" d="M 16.5,-0.5 C 18.1667,-0.5 19.8333,-0.5 21.5,-0.5C 14.5,7.16667 7.16667,14.5 -0.5,21.5C -0.5,19.8333 -0.5,18.1667 -0.5,16.5C 5.5,11.1667 11.1667,5.5 16.5,-0.5 Z"/></g>
<g><path style="opacity:0.022" fill="#43443f" d="M 36.5,-0.5 C 38.1667,-0.5 39.8333,-0.5 41.5,-0.5C 27.8333,13.8333 13.8333,27.8333 -0.5,41.5C -0.5,39.8333 -0.5,38.1667 -0.5,36.5C 12.1667,24.5 24.5,12.1667 36.5,-0.5 Z"/></g>
<g><path style="opacity:0.022" fill="#43443f" d="M 56.5,-0.5 C 58.1667,-0.5 59.8333,-0.5 61.5,-0.5C 41.1667,20.5 20.5,41.1667 -0.5,61.5C -0.5,59.8333 -0.5,58.1667 -0.5,56.5C 18.8333,37.8333 37.8333,18.8333 56.5,-0.5 Z"/></g>
<g><path style="opacity:0.022" fill="#43443f" d="M 76.5,-0.5 C 78.1667,-0.5 79.8333,-0.5 81.5,-0.5C 54.5,27.1667 27.1667,54.5 -0.5,81.5C -0.5,79.8333 -0.5,78.1667 -0.5,76.5C 25.5,51.1667 51.1667,25.5 76.5,-0.5 Z"/></g>
<g><path style="opacity:0.022" fill="#43443f" d="M 96.5,-0.5 C 98.1667,-0.5 99.8333,-0.5 101.5,-0.5C 67.8333,33.8333 33.8333,67.8333 -0.5,101.5C -0.5,99.8333 -0.5,98.1667 -0.5,96.5C 32.1667,64.5 64.5,32.1667 96.5,-0.5 Z"/></g>
<g><path style="opacity:0.022" fill="#43443f" d="M 116.5,-0.5 C 118.167,-0.5 119.833,-0.5 121.5,-0.5C 81.1667,40.5 40.5,81.1667 -0.5,121.5C -0.5,119.833 -0.5,118.167 -0.5,116.5C 38.8333,77.8333 77.8333,38.8333 116.5,-0.5 Z"/></g>
<g><path style="opacity:0.022" fill="#43443f" d="M 136.5,-0.5 C 138.167,-0.5 139.833,-0.5 141.5,-0.5C 94.5,47.1667 47.1667,94.5 -0.5,141.5C -0.5,139.833 -0.5,138.167 -0.5,136.5C 45.5,91.1667 91.1667,45.5 136.5,-0.5 Z"/></g>
<g><path style="opacity:0.022" fill="#444440" d="M 156.5,-0.5 C 158.167,-0.5 159.833,-0.5 161.5,-0.5C 151.833,9.5 142.167,19.5 132.5,29.5C 131.833,29.5 131.5,29.8333 131.5,30.5C 130.833,30.5 130.5,30.8333 130.5,31.5C 126.966,33.7664 123.3,35.7664 119.5,37.5C 131.833,24.8333 144.167,12.1667 156.5,-0.5 Z"/></g>
<g><path style="opacity:0.022" fill="#444441" d="M 176.5,-0.5 C 178.167,-0.5 179.833,-0.5 181.5,-0.5C 177.167,4.16667 172.833,8.83333 168.5,13.5C 167.833,13.5 167.5,13.8333 167.5,14.5C 164.838,15.4986 162.172,16.4986 159.5,17.5C 165.167,11.5 170.833,5.5 176.5,-0.5 Z"/></g>
<g><path style="opacity:0.022" fill="#43443f" d="M 196.5,-0.5 C 198.167,-0.5 199.833,-0.5 201.5,-0.5C 199.833,1.5 198.167,3.5 196.5,5.5C 194.228,6.31863 191.894,6.9853 189.5,7.5C 191.833,4.83333 194.167,2.16667 196.5,-0.5 Z"/></g>
<g><path style="opacity:0.022" fill="#444643" d="M 216.5,-0.5 C 218.167,-0.5 219.833,-0.5 221.5,-0.5C 221.167,0.166667 220.833,0.833333 220.5,1.5C 218.435,1.51715 216.435,1.85048 214.5,2.5C 215.167,1.5 215.833,0.5 216.5,-0.5 Z"/></g>
<g><path style="opacity:0.022" fill="#454442" d="M 296.5,-0.5 C 298.167,-0.5 299.833,-0.5 301.5,-0.5C 300.833,0.5 300.167,1.5 299.5,2.5C 297.585,2.78448 295.919,2.45115 294.5,1.5C 295.5,1.16667 296.167,0.5 296.5,-0.5 Z"/></g>
<g><path style="opacity:0.022" fill="#43443f" d="M 316.5,-0.5 C 318.167,-0.5 319.833,-0.5 321.5,-0.5C 319.833,1.83333 317.833,3.83333 315.5,5.5C 313.901,5.76781 312.568,5.43448 311.5,4.5C 313.5,3.16667 315.167,1.5 316.5,-0.5 Z"/></g>
<g><path style="opacity:0.022" fill="#43443f" d="M 336.5,-0.5 C 338.167,-0.5 339.833,-0.5 341.5,-0.5C 338.167,3.16667 334.833,6.83333 331.5,10.5C 330.292,9.76589 328.959,9.43255 327.5,9.5C 330.5,6.16667 333.5,2.83333 336.5,-0.5 Z"/></g>
<g><path style="opacity:0.022" fill="#444440" d="M 356.5,-0.5 C 358.167,-0.5 359.833,-0.5 361.5,-0.5C 356.5,4.83333 351.5,10.1667 346.5,15.5C 344.847,15.3404 343.514,14.6737 342.5,13.5C 347.5,9.16667 352.167,4.5 356.5,-0.5 Z"/></g>
<g><path style="opacity:0.022" fill="#43443f" d="M 376.5,-0.5 C 378.167,-0.5 379.833,-0.5 381.5,-0.5C 374.5,6.83333 367.5,14.1667 360.5,21.5C 359.29,21.0679 358.29,20.4013 357.5,19.5C 363.833,12.8333 370.167,6.16667 376.5,-0.5 Z"/></g>
<g><path style="opacity:0.022" fill="#43443f" d="M 396.5,-0.5 C 398.167,-0.5 399.833,-0.5 401.5,-0.5C 392.5,8.83333 383.5,18.1667 374.5,27.5C 372.847,27.3404 371.514,26.6737 370.5,25.5C 379.5,17.1667 388.167,8.5 396.5,-0.5 Z"/></g>
<g><path style="opacity:0.022" fill="#444440" d="M 416.5,-0.5 C 418.167,-0.5 419.833,-0.5 421.5,-0.5C 410.167,11.5 398.5,23.1667 386.5,34.5C 384.973,34.573 383.973,33.9063 383.5,32.5C 394.833,21.8333 405.833,10.8333 416.5,-0.5 Z"/></g>
<g><path style="opacity:0.022" fill="#43443f" d="M 436.5,-0.5 C 438.167,-0.5 439.833,-0.5 441.5,-0.5C 427.5,13.8333 413.5,28.1667 399.5,42.5C 397.973,42.573 396.973,41.9063 396.5,40.5C 409.833,26.8333 423.167,13.1667 436.5,-0.5 Z"/></g>
<g><path style="opacity:0.022" fill="#43443f" d="M 456.5,-0.5 C 458.167,-0.5 459.833,-0.5 461.5,-0.5C 444.833,16.8333 427.833,33.8333 410.5,50.5C 409.29,50.0679 408.29,49.4013 407.5,48.5C 424.167,32.5 440.5,16.1667 456.5,-0.5 Z"/></g>
<g><path style="opacity:0.022" fill="#43443f" d="M 476.5,-0.5 C 478.167,-0.5 479.833,-0.5 481.5,-0.5C 461.833,19.8333 441.833,39.8333 421.5,59.5C 420.5,59.1667 419.833,58.5 419.5,57.5C 438.5,38.1667 457.5,18.8333 476.5,-0.5 Z"/></g>
<g><path style="opacity:0.022" fill="#43443f" d="M 496.5,-0.5 C 498.167,-0.5 499.833,-0.5 501.5,-0.5C 478.5,22.8333 455.5,46.1667 432.5,69.5C 431.167,68.8333 430.167,67.8333 429.5,66.5C 452.167,44.5 474.5,22.1667 496.5,-0.5 Z"/></g>
<g><path style="opacity:0.022" fill="#43443f" d="M 511.5,5.5 C 511.5,7.16667 511.5,8.83333 511.5,10.5C 488.167,33.1667 465.167,56.1667 442.5,79.5C 441.167,78.8333 440.167,77.8333 439.5,76.5C 463.5,52.8333 487.5,29.1667 511.5,5.5 Z"/></g>
<g><path style="opacity:0.022" fill="#43443f" d="M 511.5,25.5 C 511.5,27.1667 511.5,28.8333 511.5,30.5C 491.5,50.1667 471.5,69.8333 451.5,89.5C 450.094,89.0269 449.427,88.0269 449.5,86.5C 470.167,66.1667 490.833,45.8333 511.5,25.5 Z"/></g>
<g><path style="opacity:0.022" fill="#444440" d="M 511.5,45.5 C 511.5,47.1667 511.5,48.8333 511.5,50.5C 494.5,67.1667 477.5,83.8333 460.5,100.5C 459.167,99.8333 458.167,98.8333 457.5,97.5C 458.239,97.631 458.906,97.4643 459.5,97C 476.701,79.6316 494.035,62.4649 511.5,45.5 Z"/></g>
<g><path style="opacity:0.022" fill="#43443f" d="M 511.5,65.5 C 511.5,67.1667 511.5,68.8333 511.5,70.5C 497.167,84.5 482.833,98.5 468.5,112.5C 467.833,111.5 467.167,110.5 466.5,109.5C 481.5,94.8333 496.5,80.1667 511.5,65.5 Z"/></g>
<g><path style="opacity:0.022" fill="#43443f" d="M 511.5,85.5 C 511.5,87.1667 511.5,88.8333 511.5,90.5C 499.833,101.833 488.167,113.167 476.5,124.5C 475.599,123.71 474.932,122.71 474.5,121.5C 486.833,109.5 499.167,97.5 511.5,85.5 Z"/></g>
<g><path style="opacity:1" fill="#fcfcfd" d="M 258.5,89.5 C 261.516,89.8406 264.182,91.0073 266.5,93C 284.667,107.167 302.833,121.333 321,135.5C 321.333,128.5 321.667,121.5 322,114.5C 322.308,113.692 322.808,113.025 323.5,112.5C 336.454,111.353 349.454,111.186 362.5,112C 363.308,112.308 363.975,112.808 364.5,113.5C 365.321,132.456 365.821,151.456 366,170.5C 384.743,185.121 403.576,199.621 422.5,214C 433.753,223.003 434.419,232.669 424.5,243C 416.235,246.908 408.568,246.074 401.5,240.5C 355.598,203.87 309.265,167.704 262.5,132C 256.307,128.266 250.64,128.933 245.5,134C 199.12,170.715 152.453,207.049 105.5,243C 88.2784,248.773 79.7784,242.606 80,224.5C 82.0751,220.421 84.9084,216.921 88.5,214C 141.986,172.425 195.653,131.091 249.5,90C 252.482,89.502 255.482,89.3354 258.5,89.5 Z"/></g>
<g><path style="opacity:0.022" fill="#444440" d="M 511.5,105.5 C 511.5,107.167 511.5,108.833 511.5,110.5C 502.167,119.5 492.833,128.5 483.5,137.5C 482.833,136.5 482.167,135.5 481.5,134.5C 491.5,124.833 501.5,115.167 511.5,105.5 Z"/></g>
<g><path style="opacity:0.022" fill="#444440" d="M 37.5,119.5 C 35.5283,123.15 33.5283,126.816 31.5,130.5C 30.8333,130.5 30.5,130.833 30.5,131.5C 29.8333,131.5 29.5,131.833 29.5,132.5C 19.5,142.167 9.5,151.833 -0.5,161.5C -0.5,159.833 -0.5,158.167 -0.5,156.5C 12.1667,144.167 24.8333,131.833 37.5,119.5 Z"/></g>
<g><path style="opacity:0.022" fill="#43443f" d="M 511.5,125.5 C 511.5,127.167 511.5,128.833 511.5,130.5C 504.167,137.167 497.167,144.167 490.5,151.5C 489.326,150.486 488.66,149.153 488.5,147.5C 496.167,140.167 503.833,132.833 511.5,125.5 Z"/></g>
<g><path style="opacity:0.022" fill="#444440" d="M 511.5,145.5 C 511.5,147.167 511.5,148.833 511.5,150.5C 505.773,155.224 500.773,160.558 496.5,166.5C 495.463,165.07 494.796,163.403 494.5,161.5C 500.167,156.167 505.833,150.833 511.5,145.5 Z"/></g>
<g><path style="opacity:1" fill="#fdfdfd" d="M 387.5,255.5 C 387.667,299.168 387.5,342.835 387,386.5C 386.5,387.667 385.667,388.5 384.5,389C 353.125,389.826 321.791,389.659 290.5,388.5C 289.808,387.975 289.308,387.308 289,386.5C 288.667,355.5 288.333,324.5 288,293.5C 287.097,292.299 285.931,291.465 284.5,291C 265.167,290.333 245.833,290.333 226.5,291C 225.069,291.465 223.903,292.299 223,293.5C 222.667,324.5 222.333,355.5 222,386.5C 221.692,387.308 221.192,387.975 220.5,388.5C 189.209,389.659 157.875,389.826 126.5,389C 125.333,388.5 124.5,387.667 124,386.5C 123.5,357.502 123.333,328.502 123.5,299.5C 123.333,284.83 123.5,270.163 124,255.5C 124.667,254.167 125.333,252.833 126,251.5C 168.076,218.546 210.243,185.713 252.5,153C 254.5,152.333 256.5,152.333 258.5,153C 299.5,184.667 340.5,216.333 381.5,248C 384.121,250.114 386.121,252.614 387.5,255.5 Z"/></g>
<g><path style="opacity:0.022" fill="#444441" d="M 17.5,159.5 C 16.4986,162.172 15.4986,164.838 14.5,167.5C 13.8333,167.5 13.5,167.833 13.5,168.5C 8.83333,172.833 4.16667,177.167 -0.5,181.5C -0.5,179.833 -0.5,178.167 -0.5,176.5C 5.5,170.833 11.5,165.167 17.5,159.5 Z"/></g>
<g><path style="opacity:0.022" fill="#43443f" d="M 511.5,165.5 C 511.5,167.167 511.5,168.833 511.5,170.5C 507.833,173.5 504.5,176.833 501.5,180.5C 500.655,179.329 499.989,177.995 499.5,176.5C 503.5,172.833 507.5,169.167 511.5,165.5 Z"/></g>
<g><path style="opacity:0.022" fill="#43443f" d="M 511.5,185.5 C 511.5,187.167 511.5,188.833 511.5,190.5C 509.5,192.167 507.5,193.833 505.5,195.5C 504.566,194.432 504.232,193.099 504.5,191.5C 506.833,189.5 509.167,187.5 511.5,185.5 Z"/></g>
<g><path style="opacity:0.022" fill="#43443f" d="M 7.5,189.5 C 6.9853,191.894 6.31863,194.228 5.5,196.5C 3.5,198.167 1.5,199.833 -0.5,201.5C -0.5,199.833 -0.5,198.167 -0.5,196.5C 2.16667,194.167 4.83333,191.833 7.5,189.5 Z"/></g>
<g><path style="opacity:0.022" fill="#444442" d="M 511.5,205.5 C 511.5,207.167 511.5,208.833 511.5,210.5C 510.5,211.167 509.5,211.833 508.5,212.5C 508.167,211.167 507.833,209.833 507.5,208.5C 508.833,207.5 510.167,206.5 511.5,205.5 Z"/></g>
<g><path style="opacity:0.022" fill="#454544" d="M 2.5,214.5 C 1.85048,216.435 1.51715,218.435 1.5,220.5C 0.833333,220.833 0.166667,221.167 -0.5,221.5C -0.5,219.833 -0.5,218.167 -0.5,216.5C 0.5,215.833 1.5,215.167 2.5,214.5 Z"/></g>
<g><path style="opacity:1" fill="#4b86c7" d="M 232.5,-0.5 C 248.833,-0.5 265.167,-0.5 281.5,-0.5C 285.591,0.895475 289.924,1.56214 294.5,1.5C 295.919,2.45115 297.585,2.78448 299.5,2.5C 303.426,3.55154 307.426,4.21821 311.5,4.5C 312.568,5.43448 313.901,5.76781 315.5,5.5C 319.416,6.81898 323.416,8.15231 327.5,9.5C 328.959,9.43255 330.292,9.76589 331.5,10.5C 332.492,10.3284 333.158,10.6618 333.5,11.5C 332.448,11.3505 331.448,11.5172 330.5,12C 305.167,37.3333 279.833,62.6667 254.5,88C 256.058,88.21 257.391,88.71 258.5,89.5C 255.482,89.3354 252.482,89.502 249.5,90C 195.653,131.091 141.986,172.425 88.5,214C 84.9084,216.921 82.0751,220.421 80,224.5C 79.7784,242.606 88.2784,248.773 105.5,243C 152.453,207.049 199.12,170.715 245.5,134C 250.64,128.933 256.307,128.266 262.5,132C 309.265,167.704 355.598,203.87 401.5,240.5C 396.833,245.5 392.167,250.5 387.5,255.5C 386.121,252.614 384.121,250.114 381.5,248C 340.5,216.333 299.5,184.667 258.5,153C 256.5,152.333 254.5,152.333 252.5,153C 210.243,185.713 168.076,218.546 126,251.5C 125.333,252.833 124.667,254.167 124,255.5C 123.5,270.163 123.333,284.83 123.5,299.5C 94.1667,328.5 64.8333,357.5 35.5,386.5C 35.1667,386.5 34.8333,386.5 34.5,386.5C 34.573,384.973 33.9063,383.973 32.5,383.5C 31.2262,380.24 29.5595,377.24 27.5,374.5C 27.3404,372.847 26.6737,371.514 25.5,370.5C 24.1667,367.167 22.8333,363.833 21.5,360.5C 21.0679,359.29 20.4013,358.29 19.5,357.5C 18.4422,353.721 17.1089,350.054 15.5,346.5C 15.3404,344.847 14.6737,343.514 13.5,342.5C 12.7033,338.777 11.7033,335.11 10.5,331.5C 10.1667,330.167 9.83333,328.833 9.5,327.5C 8.15231,323.416 6.81898,319.416 5.5,315.5C 5.76781,313.901 5.43448,312.568 4.5,311.5C 4.21821,307.426 3.55154,303.426 2.5,299.5C 2.78448,297.585 2.45115,295.919 1.5,294.5C 1.56214,289.924 0.895475,285.591 -0.5,281.5C -0.5,265.167 -0.5,248.833 -0.5,232.5C 0.293656,228.642 0.960323,224.642 1.5,220.5C 1.51715,218.435 1.85048,216.435 2.5,214.5C 3.24235,208.455 4.24235,202.455 5.5,196.5C 6.31863,194.228 6.9853,191.894 7.5,189.5C 9.50027,182.499 11.5003,175.499 13.5,168.5C 14.1667,168.5 14.5,168.167 14.5,167.5C 15.4986,164.838 16.4986,162.172 17.5,159.5C 21.2229,150.387 25.2229,141.387 29.5,132.5C 30.1667,132.5 30.5,132.167 30.5,131.5C 31.1667,131.5 31.5,131.167 31.5,130.5C 33.5283,126.816 35.5283,123.15 37.5,119.5C 59.1667,86.5 86.5,59.1667 119.5,37.5C 123.3,35.7664 126.966,33.7664 130.5,31.5C 131.167,31.5 131.5,31.1667 131.5,30.5C 132.167,30.5 132.5,30.1667 132.5,29.5C 141.387,25.2229 150.387,21.2229 159.5,17.5C 162.172,16.4986 164.838,15.4986 167.5,14.5C 168.167,14.5 168.5,14.1667 168.5,13.5C 175.499,11.5003 182.499,9.50027 189.5,7.5C 191.894,6.9853 194.228,6.31863 196.5,5.5C 202.461,4.28426 208.461,3.28426 214.5,2.5C 216.435,1.85048 218.435,1.51715 220.5,1.5C 224.664,1.04433 228.664,0.377659 232.5,-0.5 Z"/></g>
<g><path style="opacity:0.022" fill="#43443f" d="M 510.5,285.5 C 510.833,285.5 511.167,285.5 511.5,285.5C 511.5,287.167 511.5,288.833 511.5,290.5C 510.833,290.833 510.167,291.167 509.5,291.5C 509.517,289.435 509.85,287.435 510.5,285.5 Z"/></g>
<g><path style="opacity:0.022" fill="#454442" d="M 1.5,294.5 C 2.45115,295.919 2.78448,297.585 2.5,299.5C 1.5,300.167 0.5,300.833 -0.5,301.5C -0.5,299.833 -0.5,298.167 -0.5,296.5C 0.5,296.167 1.16667,295.5 1.5,294.5 Z"/></g>
<g><path style="opacity:0.022" fill="#444441" d="M 511.5,305.5 C 511.5,307.167 511.5,308.833 511.5,310.5C 509.5,312.167 507.5,313.833 505.5,315.5C 505.325,313.379 505.659,311.379 506.5,309.5C 508.167,308.167 509.833,306.833 511.5,305.5 Z"/></g>
<g><path style="opacity:0.022" fill="#43443f" d="M 4.5,311.5 C 5.43448,312.568 5.76781,313.901 5.5,315.5C 3.83333,317.833 1.83333,319.833 -0.5,321.5C -0.5,319.833 -0.5,318.167 -0.5,316.5C 1.5,315.167 3.16667,313.5 4.5,311.5 Z"/></g>
<g><path style="opacity:0.022" fill="#43443f" d="M 511.5,325.5 C 511.5,327.167 511.5,328.833 511.5,330.5C 506.5,335.167 501.5,339.833 496.5,344.5C 497.167,342.167 497.833,339.833 498.5,337.5C 499.167,337.5 499.5,337.167 499.5,336.5C 503.5,332.833 507.5,329.167 511.5,325.5 Z"/></g>
<g><path style="opacity:0.022" fill="#444441" d="M 9.5,327.5 C 9.83333,328.833 10.1667,330.167 10.5,331.5C 6.83333,334.833 3.16667,338.167 -0.5,341.5C -0.5,339.833 -0.5,338.167 -0.5,336.5C 2.83333,333.5 6.16667,330.5 9.5,327.5 Z"/></g>
<g><path style="opacity:0.022" fill="#444440" d="M 13.5,342.5 C 14.6737,343.514 15.3404,344.847 15.5,346.5C 10.1667,351.5 4.83333,356.5 -0.5,361.5C -0.5,359.833 -0.5,358.167 -0.5,356.5C 4.5,352.167 9.16667,347.5 13.5,342.5 Z"/></g>
<g><path style="opacity:0.022" fill="#444440" d="M 511.5,345.5 C 511.5,347.167 511.5,348.833 511.5,350.5C 500.833,360.833 490.167,371.167 479.5,381.5C 480.642,377.883 482.308,374.55 484.5,371.5C 485.167,371.5 485.5,371.167 485.5,370.5C 494.167,362.167 502.833,353.833 511.5,345.5 Z"/></g>
<g><path style="opacity:0.022" fill="#43443f" d="M 19.5,357.5 C 20.4013,358.29 21.0679,359.29 21.5,360.5C 14.1667,367.5 6.83333,374.5 -0.5,381.5C -0.5,379.833 -0.5,378.167 -0.5,376.5C 6.16667,370.167 12.8333,363.833 19.5,357.5 Z"/></g>
<g><path style="opacity:0.022" fill="#43443f" d="M 511.5,365.5 C 511.5,367.167 511.5,368.833 511.5,370.5C 464.167,417.167 417.167,464.167 370.5,511.5C 368.833,511.5 367.167,511.5 365.5,511.5C 413.833,462.5 462.5,413.833 511.5,365.5 Z"/></g>
<g><path style="opacity:0.022" fill="#43443f" d="M 25.5,370.5 C 26.6737,371.514 27.3404,372.847 27.5,374.5C 18.1667,383.5 8.83333,392.5 -0.5,401.5C -0.5,399.833 -0.5,398.167 -0.5,396.5C 8.5,388.167 17.1667,379.5 25.5,370.5 Z"/></g>
<g><path style="opacity:1" fill="#4a86c7" d="M 333.5,11.5 C 336.5,12.1667 339.5,12.8333 342.5,13.5C 343.514,14.6737 344.847,15.3404 346.5,15.5C 350.054,17.1089 353.721,18.4422 357.5,19.5C 358.29,20.4013 359.29,21.0679 360.5,21.5C 363.833,22.8333 367.167,24.1667 370.5,25.5C 371.514,26.6737 372.847,27.3404 374.5,27.5C 377.24,29.5595 380.24,31.2262 383.5,32.5C 383.973,33.9063 384.973,34.573 386.5,34.5C 389.566,36.8899 392.9,38.8899 396.5,40.5C 396.973,41.9063 397.973,42.573 399.5,42.5C 401.86,44.8532 404.527,46.8532 407.5,48.5C 408.29,49.4013 409.29,50.0679 410.5,50.5C 413.19,53.1846 416.19,55.5179 419.5,57.5C 419.833,58.5 420.5,59.1667 421.5,59.5C 424.141,61.8044 426.808,64.1377 429.5,66.5C 430.167,67.8333 431.167,68.8333 432.5,69.5C 434.5,72.1667 436.833,74.5 439.5,76.5C 440.167,77.8333 441.167,78.8333 442.5,79.5C 444.5,82.1667 446.833,84.5 449.5,86.5C 449.427,88.0269 450.094,89.0269 451.5,89.5C 453.5,92.1667 455.5,94.8333 457.5,97.5C 458.167,98.8333 459.167,99.8333 460.5,100.5C 462.5,103.5 464.5,106.5 466.5,109.5C 467.167,110.5 467.833,111.5 468.5,112.5C 470.5,115.5 472.5,118.5 474.5,121.5C 474.932,122.71 475.599,123.71 476.5,124.5C 478.18,127.86 479.847,131.193 481.5,134.5C 482.167,135.5 482.833,136.5 483.5,137.5C 485.167,140.833 486.833,144.167 488.5,147.5C 488.66,149.153 489.326,150.486 490.5,151.5C 491.639,154.918 492.972,158.251 494.5,161.5C 494.796,163.403 495.463,165.07 496.5,166.5C 497.5,169.833 498.5,173.167 499.5,176.5C 499.989,177.995 500.655,179.329 501.5,180.5C 501.926,184.427 502.926,188.093 504.5,191.5C 504.232,193.099 504.566,194.432 505.5,195.5C 506.167,199.833 506.833,204.167 507.5,208.5C 507.833,209.833 508.167,211.167 508.5,212.5C 509.08,216.142 509.58,219.809 510,223.5C 510.278,224.416 510.778,225.082 511.5,225.5C 511.5,227.167 511.5,228.833 511.5,230.5C 510.167,231.167 510.167,231.833 511.5,232.5C 511.5,247.833 511.5,263.167 511.5,278.5C 510.532,280.607 510.198,282.941 510.5,285.5C 509.85,287.435 509.517,289.435 509.5,291.5C 508.716,297.539 507.716,303.539 506.5,309.5C 505.659,311.379 505.325,313.379 505.5,315.5C 503.1,322.368 501.1,329.368 499.5,336.5C 498.833,336.5 498.5,336.833 498.5,337.5C 497.833,339.833 497.167,342.167 496.5,344.5C 492.836,353.162 489.169,361.829 485.5,370.5C 484.833,370.5 484.5,370.833 484.5,371.5C 482.308,374.55 480.642,377.883 479.5,381.5C 455.167,422.5 422.5,455.167 381.5,479.5C 378.183,481.137 374.85,482.804 371.5,484.5C 370.833,484.5 370.5,484.833 370.5,485.5C 361.829,489.169 353.162,492.836 344.5,496.5C 342.167,497.167 339.833,497.833 337.5,498.5C 336.833,498.5 336.5,498.833 336.5,499.5C 329.368,501.1 322.368,503.1 315.5,505.5C 313.379,505.325 311.379,505.659 309.5,506.5C 303.539,507.716 297.539,508.716 291.5,509.5C 289.435,509.517 287.435,509.85 285.5,510.5C 282.941,510.198 280.607,510.532 278.5,511.5C 263.167,511.5 247.833,511.5 232.5,511.5C 231.833,510.167 231.167,510.167 230.5,511.5C 228.833,511.5 227.167,511.5 225.5,511.5C 225.082,510.778 224.416,510.278 223.5,510C 219.809,509.58 216.142,509.08 212.5,508.5C 211.167,508.167 209.833,507.833 208.5,507.5C 204.167,506.833 199.833,506.167 195.5,505.5C 194.432,504.566 193.099,504.232 191.5,504.5C 188.381,503.13 185.048,502.13 181.5,501.5C 179.972,500.691 178.306,500.024 176.5,499.5C 172.89,498.297 169.223,497.297 165.5,496.5C 164.486,495.326 163.153,494.66 161.5,494.5C 158.251,492.972 154.918,491.639 151.5,490.5C 150.486,489.326 149.153,488.66 147.5,488.5C 144.167,486.833 140.833,485.167 137.5,483.5C 136.609,482.89 135.609,482.557 134.5,482.5C 131.534,480.012 128.201,478.012 124.5,476.5C 123.71,475.599 122.71,474.932 121.5,474.5C 118.5,472.5 115.5,470.5 112.5,468.5C 111.5,467.833 110.5,467.167 109.5,466.5C 106.5,464.5 103.5,462.5 100.5,460.5C 100.027,459.094 99.0269,458.427 97.5,458.5C 95.2486,455.705 92.5819,453.372 89.5,451.5C 89.0269,450.094 88.0269,449.427 86.5,449.5C 84.5,446.833 82.1667,444.5 79.5,442.5C 78.8333,441.167 77.8333,440.167 76.5,439.5C 74.5,436.833 72.1667,434.5 69.5,432.5C 68.8333,431.167 67.8333,430.167 66.5,429.5C 64.1377,426.808 61.8044,424.141 59.5,421.5C 59.1667,420.5 58.5,419.833 57.5,419.5C 55.5179,416.19 53.1846,413.19 50.5,410.5C 50.0679,409.29 49.4013,408.29 48.5,407.5C 46.8532,404.527 44.8532,401.86 42.5,399.5C 42.573,397.973 41.9063,396.973 40.5,396.5C 38.8333,393.167 37.1667,389.833 35.5,386.5C 64.8333,357.5 94.1667,328.5 123.5,299.5C 123.333,328.502 123.5,357.502 124,386.5C 124.5,387.667 125.333,388.5 126.5,389C 157.875,389.826 189.209,389.659 220.5,388.5C 221.192,387.975 221.692,387.308 222,386.5C 222.333,355.5 222.667,324.5 223,293.5C 223.903,292.299 225.069,291.465 226.5,291C 245.833,290.333 265.167,290.333 284.5,291C 285.931,291.465 287.097,292.299 288,293.5C 288.333,324.5 288.667,355.5 289,386.5C 289.308,387.308 289.808,387.975 290.5,388.5C 321.791,389.659 353.125,389.826 384.5,389C 385.667,388.5 386.5,387.667 387,386.5C 387.5,342.835 387.667,299.168 387.5,255.5C 392.167,250.5 396.833,245.5 401.5,240.5C 408.568,246.074 416.235,246.908 424.5,243C 434.419,232.669 433.753,223.003 422.5,214C 403.576,199.621 384.743,185.121 366,170.5C 365.821,151.456 365.321,132.456 364.5,113.5C 363.975,112.808 363.308,112.308 362.5,112C 349.454,111.186 336.454,111.353 323.5,112.5C 322.808,113.025 322.308,113.692 322,114.5C 321.667,121.5 321.333,128.5 321,135.5C 302.833,121.333 284.667,107.167 266.5,93C 264.182,91.0073 261.516,89.8406 258.5,89.5C 257.391,88.71 256.058,88.21 254.5,88C 279.833,62.6667 305.167,37.3333 330.5,12C 331.448,11.5172 332.448,11.3505 333.5,11.5 Z"/></g>
<g><path style="opacity:0.022" fill="#444440" d="M 32.5,383.5 C 33.9063,383.973 34.573,384.973 34.5,386.5C 23.1667,398.5 11.5,410.167 -0.5,421.5C -0.5,419.833 -0.5,418.167 -0.5,416.5C 10.8333,405.833 21.8333,394.833 32.5,383.5 Z"/></g>
<g><path style="opacity:0.022" fill="#43443f" d="M 511.5,385.5 C 511.5,387.167 511.5,388.833 511.5,390.5C 470.833,430.5 430.5,470.833 390.5,511.5C 388.833,511.5 387.167,511.5 385.5,511.5C 427.167,469.167 469.167,427.167 511.5,385.5 Z"/></g>
<g><path style="opacity:0.022" fill="#43443f" d="M 40.5,396.5 C 41.9063,396.973 42.573,397.973 42.5,399.5C 28.1667,413.5 13.8333,427.5 -0.5,441.5C -0.5,439.833 -0.5,438.167 -0.5,436.5C 13.1667,423.167 26.8333,409.833 40.5,396.5 Z"/></g>
<g><path style="opacity:0.022" fill="#43443f" d="M 511.5,405.5 C 511.5,407.167 511.5,408.833 511.5,410.5C 477.5,443.833 443.833,477.5 410.5,511.5C 408.833,511.5 407.167,511.5 405.5,511.5C 440.5,475.833 475.833,440.5 511.5,405.5 Z"/></g>
<g><path style="opacity:0.022" fill="#43443f" d="M 48.5,407.5 C 49.4013,408.29 50.0679,409.29 50.5,410.5C 33.8333,427.833 16.8333,444.833 -0.5,461.5C -0.5,459.833 -0.5,458.167 -0.5,456.5C 16.1667,440.5 32.5,424.167 48.5,407.5 Z"/></g>
<g><path style="opacity:0.022" fill="#43443f" d="M 57.5,419.5 C 58.5,419.833 59.1667,420.5 59.5,421.5C 39.8333,441.833 19.8333,461.833 -0.5,481.5C -0.5,479.833 -0.5,478.167 -0.5,476.5C 18.8333,457.5 38.1667,438.5 57.5,419.5 Z"/></g>
<g><path style="opacity:0.022" fill="#43443f" d="M 511.5,425.5 C 511.5,427.167 511.5,428.833 511.5,430.5C 484.167,457.167 457.167,484.167 430.5,511.5C 428.833,511.5 427.167,511.5 425.5,511.5C 453.833,482.5 482.5,453.833 511.5,425.5 Z"/></g>
<g><path style="opacity:0.022" fill="#43443f" d="M 66.5,429.5 C 67.8333,430.167 68.8333,431.167 69.5,432.5C 46.1667,455.5 22.8333,478.5 -0.5,501.5C -0.5,499.833 -0.5,498.167 -0.5,496.5C 22.1667,474.5 44.5,452.167 66.5,429.5 Z"/></g>
<g><path style="opacity:0.022" fill="#43443f" d="M 76.5,439.5 C 77.8333,440.167 78.8333,441.167 79.5,442.5C 56.1667,465.167 33.1667,488.167 10.5,511.5C 8.83333,511.5 7.16667,511.5 5.5,511.5C 29.1667,487.5 52.8333,463.5 76.5,439.5 Z"/></g>
<g><path style="opacity:0.022" fill="#43443f" d="M 511.5,445.5 C 511.5,447.167 511.5,448.833 511.5,450.5C 490.833,470.5 470.5,490.833 450.5,511.5C 448.833,511.5 447.167,511.5 445.5,511.5C 467.167,489.167 489.167,467.167 511.5,445.5 Z"/></g>
<g><path style="opacity:0.022" fill="#43443f" d="M 86.5,449.5 C 88.0269,449.427 89.0269,450.094 89.5,451.5C 69.8333,471.5 50.1667,491.5 30.5,511.5C 28.8333,511.5 27.1667,511.5 25.5,511.5C 45.8333,490.833 66.1667,470.167 86.5,449.5 Z"/></g>
<g><path style="opacity:0.022" fill="#43443f" d="M 97.5,458.5 C 99.0269,458.427 100.027,459.094 100.5,460.5C 83.8333,477.5 67.1667,494.5 50.5,511.5C 48.8333,511.5 47.1667,511.5 45.5,511.5C 62.8333,493.833 80.1667,476.167 97.5,458.5 Z"/></g>
<g><path style="opacity:0.022" fill="#43443f" d="M 511.5,465.5 C 511.5,467.167 511.5,468.833 511.5,470.5C 497.5,483.833 483.833,497.5 470.5,511.5C 468.833,511.5 467.167,511.5 465.5,511.5C 480.5,495.833 495.833,480.5 511.5,465.5 Z"/></g>
<g><path style="opacity:0.022" fill="#43443f" d="M 109.5,466.5 C 110.5,467.167 111.5,467.833 112.5,468.5C 98.5,482.833 84.5,497.167 70.5,511.5C 68.8333,511.5 67.1667,511.5 65.5,511.5C 80.1667,496.5 94.8333,481.5 109.5,466.5 Z"/></g>
<g><path style="opacity:0.022" fill="#43443f" d="M 121.5,474.5 C 122.71,474.932 123.71,475.599 124.5,476.5C 113.167,488.167 101.833,499.833 90.5,511.5C 88.8333,511.5 87.1667,511.5 85.5,511.5C 97.5,499.167 109.5,486.833 121.5,474.5 Z"/></g>
<g><path style="opacity:0.022" fill="#444440" d="M 381.5,479.5 C 371.167,490.167 360.833,500.833 350.5,511.5C 348.833,511.5 347.167,511.5 345.5,511.5C 353.833,502.833 362.167,494.167 370.5,485.5C 371.167,485.5 371.5,485.167 371.5,484.5C 374.85,482.804 378.183,481.137 381.5,479.5 Z"/></g>
<g><path style="opacity:0.022" fill="#43443f" d="M 134.5,482.5 C 135.609,482.557 136.609,482.89 137.5,483.5C 128.5,492.833 119.5,502.167 110.5,511.5C 108.833,511.5 107.167,511.5 105.5,511.5C 114.833,501.5 124.5,491.833 134.5,482.5 Z"/></g>
<g><path style="opacity:0.022" fill="#43443f" d="M 511.5,485.5 C 511.5,487.167 511.5,488.833 511.5,490.5C 504.167,497.167 497.167,504.167 490.5,511.5C 488.833,511.5 487.167,511.5 485.5,511.5C 493.833,502.5 502.5,493.833 511.5,485.5 Z"/></g>
<g><path style="opacity:0.022" fill="#43443f" d="M 147.5,488.5 C 149.153,488.66 150.486,489.326 151.5,490.5C 144.167,497.167 137.167,504.167 130.5,511.5C 128.833,511.5 127.167,511.5 125.5,511.5C 132.833,503.833 140.167,496.167 147.5,488.5 Z"/></g>
<g><path style="opacity:0.022" fill="#43443f" d="M 161.5,494.5 C 163.153,494.66 164.486,495.326 165.5,496.5C 160.167,501.167 155.167,506.167 150.5,511.5C 148.833,511.5 147.167,511.5 145.5,511.5C 150.833,505.833 156.167,500.167 161.5,494.5 Z"/></g>
<g><path style="opacity:0.022" fill="#43443f" d="M 344.5,496.5 C 339.833,501.5 335.167,506.5 330.5,511.5C 328.833,511.5 327.167,511.5 325.5,511.5C 329.167,507.5 332.833,503.5 336.5,499.5C 337.167,499.5 337.5,499.167 337.5,498.5C 339.833,497.833 342.167,497.167 344.5,496.5 Z"/></g>
<g><path style="opacity:0.022" fill="#444541" d="M 176.5,499.5 C 178.306,500.024 179.972,500.691 181.5,501.5C 177.229,504.101 173.563,507.434 170.5,511.5C 168.833,511.5 167.167,511.5 165.5,511.5C 169.167,507.5 172.833,503.5 176.5,499.5 Z"/></g>
<g><path style="opacity:0.022" fill="#43443f" d="M 191.5,504.5 C 193.099,504.232 194.432,504.566 195.5,505.5C 193.833,507.5 192.167,509.5 190.5,511.5C 188.833,511.5 187.167,511.5 185.5,511.5C 187.5,509.167 189.5,506.833 191.5,504.5 Z"/></g>
<g><path style="opacity:0.022" fill="#434440" d="M 315.5,505.5 C 313.833,507.5 312.167,509.5 310.5,511.5C 308.833,511.5 307.167,511.5 305.5,511.5C 306.833,509.833 308.167,508.167 309.5,506.5C 311.379,505.659 313.379,505.325 315.5,505.5 Z"/></g>
<g><path style="opacity:0.022" fill="#43443f" d="M 511.5,505.5 C 511.5,507.167 511.5,508.833 511.5,510.5C 510.833,510.5 510.5,510.833 510.5,511.5C 508.833,511.5 507.167,511.5 505.5,511.5C 507.167,509.167 509.167,507.167 511.5,505.5 Z"/></g>
<g><path style="opacity:0.022" fill="#43443f" d="M 208.5,507.5 C 209.833,507.833 211.167,508.167 212.5,508.5C 211.833,509.5 211.167,510.5 210.5,511.5C 208.833,511.5 207.167,511.5 205.5,511.5C 206.5,510.167 207.5,508.833 208.5,507.5 Z"/></g>
<g><path style="opacity:0.022" fill="#43443f" d="M 291.5,509.5 C 291.167,510.167 290.833,510.833 290.5,511.5C 288.833,511.5 287.167,511.5 285.5,511.5C 285.5,511.167 285.5,510.833 285.5,510.5C 287.435,509.85 289.435,509.517 291.5,509.5 Z"/></g>
</svg>
